<mxfile host="app.diagrams.net" modified="2021-03-26T06:12:24.249Z" agent="5.0 (Windows NT 6.1; Win64; x64) AppleWebKit/537.36 (KHTML, like Gecko) Chrome/89.0.4389.90 Safari/537.36" etag="YnEmYYp6LUDey7kgwgRu" version="14.5.1" type="github">
  <diagram id="q7HJmJkAO2xRFigRv1nX" name="Page-1">
    <mxGraphModel dx="1769" dy="622" grid="1" gridSize="10" guides="1" tooltips="1" connect="1" arrows="1" fold="1" page="1" pageScale="1" pageWidth="827" pageHeight="1169" math="0" shadow="0">
      <root>
        <mxCell id="0" />
        <mxCell id="1" parent="0" />
        <mxCell id="MIe6p-fX1-nizZAA05Cu-4" value="" style="edgeStyle=orthogonalEdgeStyle;rounded=0;orthogonalLoop=1;jettySize=auto;html=1;" parent="1" source="MIe6p-fX1-nizZAA05Cu-2" target="MIe6p-fX1-nizZAA05Cu-3" edge="1">
          <mxGeometry relative="1" as="geometry" />
        </mxCell>
        <mxCell id="MIe6p-fX1-nizZAA05Cu-2" value="超级管理员创建CP用户" style="rounded=0;whiteSpace=wrap;html=1;" parent="1" vertex="1">
          <mxGeometry x="390" y="60" width="180" height="50" as="geometry" />
        </mxCell>
        <mxCell id="MIe6p-fX1-nizZAA05Cu-6" value="" style="edgeStyle=orthogonalEdgeStyle;rounded=0;orthogonalLoop=1;jettySize=auto;html=1;" parent="1" source="MIe6p-fX1-nizZAA05Cu-3" target="MIe6p-fX1-nizZAA05Cu-5" edge="1">
          <mxGeometry relative="1" as="geometry">
            <Array as="points">
              <mxPoint x="480" y="240" />
              <mxPoint x="330" y="240" />
            </Array>
          </mxGeometry>
        </mxCell>
        <mxCell id="MIe6p-fX1-nizZAA05Cu-3" value="CP登录平台" style="whiteSpace=wrap;html=1;rounded=0;" parent="1" vertex="1">
          <mxGeometry x="430" y="140" width="100" height="50" as="geometry" />
        </mxCell>
        <mxCell id="MIe6p-fX1-nizZAA05Cu-5" value="媒资管理" style="whiteSpace=wrap;html=1;rounded=0;" parent="1" vertex="1">
          <mxGeometry x="270" y="290" width="110" height="55" as="geometry" />
        </mxCell>
        <mxCell id="MIe6p-fX1-nizZAA05Cu-9" value="运营管理" style="rounded=0;whiteSpace=wrap;html=1;" parent="1" vertex="1">
          <mxGeometry x="430" y="290" width="100" height="55" as="geometry" />
        </mxCell>
        <mxCell id="n_8i-87hHzSHBovKKngC-5" value="" style="edgeStyle=orthogonalEdgeStyle;rounded=0;orthogonalLoop=1;jettySize=auto;html=1;" edge="1" parent="1" source="MIe6p-fX1-nizZAA05Cu-10">
          <mxGeometry relative="1" as="geometry">
            <mxPoint x="660" y="422.5" as="targetPoint" />
          </mxGeometry>
        </mxCell>
        <mxCell id="MIe6p-fX1-nizZAA05Cu-10" value="系统管理" style="rounded=0;whiteSpace=wrap;html=1;" parent="1" vertex="1">
          <mxGeometry x="610" y="290" width="100" height="55" as="geometry" />
        </mxCell>
        <mxCell id="MIe6p-fX1-nizZAA05Cu-12" value="c&lt;span style=&quot;color: rgba(0 , 0 , 0 , 0) ; font-family: monospace ; font-size: 0px ; background-color: rgb(248 , 249 , 250)&quot;&gt;%3CmxGraphModel%3E%3Croot%3E%3CmxCell%20id%3D%220%22%2F%3E%3CmxCell%20id%3D%221%22%20parent%3D%220%22%2F%3E%3CmxCell%20id%3D%222%22%20value%3D%22%22%20style%3D%22edgeStyle%3DorthogonalEdgeStyle%3Brounded%3D0%3BorthogonalLoop%3D1%3BjettySize%3Dauto%3Bhtml%3D1%3B%22%20edge%3D%221%22%20parent%3D%221%22%3E%3CmxGeometry%20relative%3D%221%22%20as%3D%22geometry%22%3E%3CmxPoint%20x%3D%22390%22%20y%3D%22170%22%20as%3D%22sourcePoint%22%2F%3E%3CmxPoint%20x%3D%22145%22%20y%3D%22270%22%20as%3D%22targetPoint%22%2F%3E%3CArray%20as%3D%22points%22%3E%3CmxPoint%20x%3D%22390%22%20y%3D%22220%22%2F%3E%3CmxPoint%20x%3D%22145%22%20y%3D%22220%22%2F%3E%3C%2FArray%3E%3C%2FmxGeometry%3E%3C%2FmxCell%3E%3C%2Froot%3E%3C%2FmxGraphModel%3E&lt;/span&gt;" style="edgeStyle=orthogonalEdgeStyle;rounded=0;orthogonalLoop=1;jettySize=auto;html=1;entryX=0.5;entryY=0;entryDx=0;entryDy=0;" parent="1" target="MIe6p-fX1-nizZAA05Cu-10" edge="1">
          <mxGeometry relative="1" as="geometry">
            <mxPoint x="480" y="190" as="sourcePoint" />
            <mxPoint x="590" y="300" as="targetPoint" />
            <Array as="points">
              <mxPoint x="480" y="240" />
              <mxPoint x="660" y="240" />
            </Array>
          </mxGeometry>
        </mxCell>
        <mxCell id="MIe6p-fX1-nizZAA05Cu-13" value="片单管理" style="whiteSpace=wrap;html=1;rounded=0;" parent="1" vertex="1">
          <mxGeometry x="190" y="422.5" width="70" height="47.5" as="geometry" />
        </mxCell>
        <mxCell id="MIe6p-fX1-nizZAA05Cu-15" value="上传管理" style="whiteSpace=wrap;html=1;rounded=0;" parent="1" vertex="1">
          <mxGeometry x="290" y="422.5" width="70" height="47.5" as="geometry" />
        </mxCell>
        <mxCell id="MIe6p-fX1-nizZAA05Cu-17" value="" style="endArrow=classic;html=1;exitX=0.5;exitY=1;exitDx=0;exitDy=0;entryX=0.5;entryY=0;entryDx=0;entryDy=0;" parent="1" source="MIe6p-fX1-nizZAA05Cu-5" target="MIe6p-fX1-nizZAA05Cu-15" edge="1">
          <mxGeometry width="50" height="50" relative="1" as="geometry">
            <mxPoint x="260" y="320" as="sourcePoint" />
            <mxPoint x="310" y="270" as="targetPoint" />
          </mxGeometry>
        </mxCell>
        <mxCell id="MIe6p-fX1-nizZAA05Cu-18" value="" style="endArrow=classic;html=1;entryX=0.5;entryY=0;entryDx=0;entryDy=0;" parent="1" edge="1" target="MIe6p-fX1-nizZAA05Cu-13">
          <mxGeometry width="50" height="50" relative="1" as="geometry">
            <mxPoint x="320" y="345" as="sourcePoint" />
            <mxPoint x="179.99999999999977" y="422.5" as="targetPoint" />
          </mxGeometry>
        </mxCell>
        <mxCell id="MIe6p-fX1-nizZAA05Cu-27" value="运营管理" style="whiteSpace=wrap;html=1;rounded=0;" parent="1" vertex="1">
          <mxGeometry x="440" y="422.5" width="70" height="47.5" as="geometry" />
        </mxCell>
        <mxCell id="MIe6p-fX1-nizZAA05Cu-28" value="" style="endArrow=classic;html=1;entryX=0.5;entryY=0;entryDx=0;entryDy=0;exitX=0.5;exitY=1;exitDx=0;exitDy=0;" parent="1" target="MIe6p-fX1-nizZAA05Cu-27" edge="1" source="MIe6p-fX1-nizZAA05Cu-9">
          <mxGeometry width="50" height="50" relative="1" as="geometry">
            <mxPoint x="560" y="345" as="sourcePoint" />
            <mxPoint x="709.9999999999998" y="422.5" as="targetPoint" />
            <Array as="points" />
          </mxGeometry>
        </mxCell>
        <mxCell id="MIe6p-fX1-nizZAA05Cu-31" value="" style="edgeStyle=orthogonalEdgeStyle;rounded=0;orthogonalLoop=1;jettySize=auto;html=1;" parent="1" source="MIe6p-fX1-nizZAA05Cu-29" target="MIe6p-fX1-nizZAA05Cu-30" edge="1">
          <mxGeometry relative="1" as="geometry" />
        </mxCell>
        <mxCell id="MIe6p-fX1-nizZAA05Cu-29" value="运营片单数据" style="rounded=0;whiteSpace=wrap;html=1;" parent="1" vertex="1">
          <mxGeometry x="-370" y="680" width="120" height="60" as="geometry" />
        </mxCell>
        <mxCell id="MIe6p-fX1-nizZAA05Cu-35" value="" style="edgeStyle=orthogonalEdgeStyle;rounded=0;orthogonalLoop=1;jettySize=auto;html=1;" parent="1" source="MIe6p-fX1-nizZAA05Cu-30" target="MIe6p-fX1-nizZAA05Cu-34" edge="1">
          <mxGeometry relative="1" as="geometry" />
        </mxCell>
        <mxCell id="MIe6p-fX1-nizZAA05Cu-30" value="REPEATHANDLE&lt;br&gt;(排重模块)" style="whiteSpace=wrap;html=1;rounded=0;" parent="1" vertex="1">
          <mxGeometry x="-130" y="680" width="120" height="60" as="geometry" />
        </mxCell>
        <mxCell id="MIe6p-fX1-nizZAA05Cu-33" value="运营数据排重接口" style="text;html=1;align=center;verticalAlign=middle;resizable=0;points=[];autosize=1;" parent="1" vertex="1">
          <mxGeometry x="-250" y="690" width="110" height="20" as="geometry" />
        </mxCell>
        <mxCell id="MIe6p-fX1-nizZAA05Cu-34" value="存储(ORACLE)" style="whiteSpace=wrap;html=1;rounded=0;" parent="1" vertex="1">
          <mxGeometry x="70" y="680" width="120" height="60" as="geometry" />
        </mxCell>
        <mxCell id="MIe6p-fX1-nizZAA05Cu-36" value="重复数据" style="text;html=1;align=center;verticalAlign=middle;resizable=0;points=[];autosize=1;" parent="1" vertex="1">
          <mxGeometry y="690" width="60" height="20" as="geometry" />
        </mxCell>
        <mxCell id="n_8i-87hHzSHBovKKngC-2" value="" style="endArrow=classic;html=1;entryX=0.5;entryY=0;entryDx=0;entryDy=0;" edge="1" parent="1" target="MIe6p-fX1-nizZAA05Cu-9">
          <mxGeometry width="50" height="50" relative="1" as="geometry">
            <mxPoint x="480" y="240" as="sourcePoint" />
            <mxPoint x="450" y="320" as="targetPoint" />
          </mxGeometry>
        </mxCell>
        <mxCell id="n_8i-87hHzSHBovKKngC-6" value="用户" style="whiteSpace=wrap;html=1;rounded=0;" vertex="1" parent="1">
          <mxGeometry x="530" y="422.5" width="70" height="47.5" as="geometry" />
        </mxCell>
        <mxCell id="n_8i-87hHzSHBovKKngC-7" value="角色" style="whiteSpace=wrap;html=1;rounded=0;" vertex="1" parent="1">
          <mxGeometry x="625" y="422.5" width="70" height="47.5" as="geometry" />
        </mxCell>
        <mxCell id="n_8i-87hHzSHBovKKngC-8" value="权限" style="whiteSpace=wrap;html=1;rounded=0;" vertex="1" parent="1">
          <mxGeometry x="720" y="422.5" width="70" height="47.5" as="geometry" />
        </mxCell>
        <mxCell id="n_8i-87hHzSHBovKKngC-12" value="" style="endArrow=classic;html=1;entryX=0.5;entryY=0;entryDx=0;entryDy=0;" edge="1" parent="1" target="n_8i-87hHzSHBovKKngC-8">
          <mxGeometry width="50" height="50" relative="1" as="geometry">
            <mxPoint x="660" y="345" as="sourcePoint" />
            <mxPoint x="710" y="295" as="targetPoint" />
          </mxGeometry>
        </mxCell>
        <mxCell id="n_8i-87hHzSHBovKKngC-13" value="" style="endArrow=classic;html=1;entryX=0.5;entryY=0;entryDx=0;entryDy=0;" edge="1" parent="1" target="n_8i-87hHzSHBovKKngC-6">
          <mxGeometry width="50" height="50" relative="1" as="geometry">
            <mxPoint x="660" y="345" as="sourcePoint" />
            <mxPoint x="710" y="295" as="targetPoint" />
          </mxGeometry>
        </mxCell>
        <mxCell id="n_8i-87hHzSHBovKKngC-14" value="" style="edgeStyle=orthogonalEdgeStyle;rounded=0;orthogonalLoop=1;jettySize=auto;html=1;" edge="1" parent="1" source="n_8i-87hHzSHBovKKngC-15" target="n_8i-87hHzSHBovKKngC-17">
          <mxGeometry relative="1" as="geometry" />
        </mxCell>
        <mxCell id="n_8i-87hHzSHBovKKngC-15" value="上传片单" style="rounded=0;whiteSpace=wrap;html=1;" vertex="1" parent="1">
          <mxGeometry x="-370" y="860" width="120" height="60" as="geometry" />
        </mxCell>
        <mxCell id="n_8i-87hHzSHBovKKngC-16" value="" style="edgeStyle=orthogonalEdgeStyle;rounded=0;orthogonalLoop=1;jettySize=auto;html=1;" edge="1" parent="1" source="n_8i-87hHzSHBovKKngC-17" target="n_8i-87hHzSHBovKKngC-19">
          <mxGeometry relative="1" as="geometry" />
        </mxCell>
        <mxCell id="n_8i-87hHzSHBovKKngC-17" value="CTMSADAPTER&lt;br&gt;(C2接收模块)" style="whiteSpace=wrap;html=1;rounded=0;" vertex="1" parent="1">
          <mxGeometry x="-130" y="860" width="120" height="60" as="geometry" />
        </mxCell>
        <mxCell id="n_8i-87hHzSHBovKKngC-18" value="入库ORACLE" style="text;html=1;align=center;verticalAlign=middle;resizable=0;points=[];autosize=1;" vertex="1" parent="1">
          <mxGeometry x="-240" y="870" width="90" height="20" as="geometry" />
        </mxCell>
        <mxCell id="n_8i-87hHzSHBovKKngC-19" value="播控平台" style="whiteSpace=wrap;html=1;rounded=0;" vertex="1" parent="1">
          <mxGeometry x="70" y="860" width="120" height="60" as="geometry" />
        </mxCell>
        <mxCell id="n_8i-87hHzSHBovKKngC-20" value="完善数据" style="text;html=1;align=center;verticalAlign=middle;resizable=0;points=[];autosize=1;" vertex="1" parent="1">
          <mxGeometry y="870" width="60" height="20" as="geometry" />
        </mxCell>
        <mxCell id="n_8i-87hHzSHBovKKngC-23" value="" style="edgeStyle=orthogonalEdgeStyle;rounded=0;orthogonalLoop=1;jettySize=auto;html=1;" edge="1" parent="1" source="n_8i-87hHzSHBovKKngC-21" target="n_8i-87hHzSHBovKKngC-22">
          <mxGeometry relative="1" as="geometry" />
        </mxCell>
        <mxCell id="n_8i-87hHzSHBovKKngC-26" value="" style="edgeStyle=orthogonalEdgeStyle;rounded=0;orthogonalLoop=1;jettySize=auto;html=1;" edge="1" parent="1" source="n_8i-87hHzSHBovKKngC-21" target="n_8i-87hHzSHBovKKngC-25">
          <mxGeometry relative="1" as="geometry" />
        </mxCell>
        <mxCell id="n_8i-87hHzSHBovKKngC-21" value="增值业务平台" style="rounded=0;whiteSpace=wrap;html=1;" vertex="1" parent="1">
          <mxGeometry x="-400" y="310" width="120" height="60" as="geometry" />
        </mxCell>
        <mxCell id="n_8i-87hHzSHBovKKngC-41" value="" style="edgeStyle=orthogonalEdgeStyle;rounded=0;orthogonalLoop=1;jettySize=auto;html=1;" edge="1" parent="1" source="n_8i-87hHzSHBovKKngC-22" target="n_8i-87hHzSHBovKKngC-40">
          <mxGeometry relative="1" as="geometry" />
        </mxCell>
        <mxCell id="n_8i-87hHzSHBovKKngC-22" value="SOP数据源" style="rounded=0;whiteSpace=wrap;html=1;" vertex="1" parent="1">
          <mxGeometry x="-200" y="310" width="120" height="60" as="geometry" />
        </mxCell>
        <mxCell id="n_8i-87hHzSHBovKKngC-24" value="推荐位" style="text;html=1;align=center;verticalAlign=middle;resizable=0;points=[];autosize=1;" vertex="1" parent="1">
          <mxGeometry x="-275" y="320" width="50" height="20" as="geometry" />
        </mxCell>
        <mxCell id="n_8i-87hHzSHBovKKngC-25" value="SMP数据源" style="rounded=0;whiteSpace=wrap;html=1;" vertex="1" parent="1">
          <mxGeometry x="-600" y="310" width="120" height="60" as="geometry" />
        </mxCell>
        <mxCell id="n_8i-87hHzSHBovKKngC-27" value="其它业务" style="text;html=1;align=center;verticalAlign=middle;resizable=0;points=[];autosize=1;" vertex="1" parent="1">
          <mxGeometry x="-470" y="320" width="60" height="20" as="geometry" />
        </mxCell>
        <mxCell id="n_8i-87hHzSHBovKKngC-35" value="REPEATHANDLE&lt;br&gt;(排重模块)" style="rounded=0;whiteSpace=wrap;html=1;" vertex="1" parent="1">
          <mxGeometry x="-500" y="150" width="120" height="60" as="geometry" />
        </mxCell>
        <mxCell id="n_8i-87hHzSHBovKKngC-38" value="" style="edgeStyle=orthogonalEdgeStyle;rounded=0;orthogonalLoop=1;jettySize=auto;html=1;" edge="1" parent="1" source="n_8i-87hHzSHBovKKngC-36" target="n_8i-87hHzSHBovKKngC-25">
          <mxGeometry relative="1" as="geometry" />
        </mxCell>
        <mxCell id="n_8i-87hHzSHBovKKngC-36" value="SMP" style="rounded=0;whiteSpace=wrap;html=1;" vertex="1" parent="1">
          <mxGeometry x="-760" y="310" width="120" height="60" as="geometry" />
        </mxCell>
        <mxCell id="n_8i-87hHzSHBovKKngC-45" value="" style="edgeStyle=orthogonalEdgeStyle;rounded=0;orthogonalLoop=1;jettySize=auto;html=1;" edge="1" parent="1" source="n_8i-87hHzSHBovKKngC-37" target="n_8i-87hHzSHBovKKngC-25">
          <mxGeometry relative="1" as="geometry" />
        </mxCell>
        <mxCell id="n_8i-87hHzSHBovKKngC-37" value="CTMSADAPTER&lt;br&gt;(C2接收模块)" style="rounded=0;whiteSpace=wrap;html=1;" vertex="1" parent="1">
          <mxGeometry x="-600" y="440" width="120" height="60" as="geometry" />
        </mxCell>
        <mxCell id="n_8i-87hHzSHBovKKngC-40" value="SOP" style="rounded=0;whiteSpace=wrap;html=1;" vertex="1" parent="1">
          <mxGeometry x="-60" y="310" width="120" height="60" as="geometry" />
        </mxCell>
        <mxCell id="n_8i-87hHzSHBovKKngC-43" value="" style="endArrow=classic;html=1;entryX=0.5;entryY=1;entryDx=0;entryDy=0;" edge="1" parent="1" target="n_8i-87hHzSHBovKKngC-35">
          <mxGeometry width="50" height="50" relative="1" as="geometry">
            <mxPoint x="-340" y="310" as="sourcePoint" />
            <mxPoint x="-290" y="260" as="targetPoint" />
          </mxGeometry>
        </mxCell>
        <mxCell id="n_8i-87hHzSHBovKKngC-44" value="" style="endArrow=classic;html=1;entryX=0.5;entryY=0;entryDx=0;entryDy=0;" edge="1" parent="1" target="n_8i-87hHzSHBovKKngC-25">
          <mxGeometry width="50" height="50" relative="1" as="geometry">
            <mxPoint x="-440" y="210" as="sourcePoint" />
            <mxPoint x="-390" y="160" as="targetPoint" />
          </mxGeometry>
        </mxCell>
        <mxCell id="n_8i-87hHzSHBovKKngC-46" value="排重接口" style="text;html=1;align=center;verticalAlign=middle;resizable=0;points=[];autosize=1;" vertex="1" parent="1">
          <mxGeometry x="-400" y="240" width="60" height="20" as="geometry" />
        </mxCell>
      </root>
    </mxGraphModel>
  </diagram>
</mxfile>
